<svg width="100" height="108" viewBox="0 0 100 108" fill="none" xmlns="http://www.w3.org/2000/svg">
<path d="M91.5 0.70002C78.7 1.90002 50.1 9.40002 28.5 17.3L24.5 18.8L24.2 51.2L24 83.7L18.7 83.3C9.1 82.7 0 89.7 0 97.7C0 104.4 8.7 109.3 17.2 107.5C23.9 106.1 30.6 100.8 31.5 96.2C31.7 95.3 31.9 81.4 31.9 65.3L32 36.1L38.8 34.2C55 29.6 66.7 27.6 82.8 26.5L92 25.8V50.2V74.6875L86.5 74C81.2 74 78.6 75 75.1 77.3C67.3 82.5 66.2 91.3 72.5 96C74.8 97.7 77.5 99.1667 85 97.5C91.9884 95.947 98.6599 90.6403 99.5 87C99.6154 86.5 100 86.7 100 43.4V1.52588e-05L97.8 0.20002C96.5 0.30002 93.7 0.50002 91.5 0.70002ZM92 13.8V18.6L78.8 20.4C71.5 21.3 63.3 22.7 60.5 23.5C57.8 24.3 51 26 45.5 27.4C40 28.7 34.7 30.1 33.8 30.5C32.3 31.1 32 30.6 32 27.7C32 24.3 32.3 24 37.3 22.2C51.7 16.8 64 13.5 80.5 10.5C92.3 8.40002 92 8.30002 92 13.8Z" fill="url(#paint0_linear)"/>
<defs>
<linearGradient id="paint0_linear" x1="0" y1="107.876" x2="100" y2="107.876" gradientUnits="userSpaceOnUse">
<stop stop-color="#F05160"/>
<stop offset="1" stop-color="#F6916A"/>
</linearGradient>
</defs>
</svg>
